<?xml version="1.0" encoding="UTF-8" standalone="no"?>
<svg viewBox="0 0 744.09447 1052.362179" xmlns="http://www.w3.org/2000/svg">
<g transform="matrix(12.83091,0,0,13.04428,-27.73214,118.21166)">
<path d="m30.76826,10.92437c-1.73147,0-3.12854,1.39383-3.12853,3.11061s1.39706,3.10199 3.12853,3.10199 3.13722-1.38521 3.13722-3.10199-1.40576-3.11061-3.13722-3.11061zm0,6.2126c-13.80154,4.97617-14.66839,17.41799-7.76762,19.28405l-2.62873,6.43897c2.90122,3.98761 17.64985,4.2112 20.91177,0l-2.73911-6.43897c6.90077-1.86606 6.02523-14.30788-7.77631-19.28405zm0,29.14196c-2.78273,1.98122-5.44056,5.14219-9.51954,2.72281-3.70312-2.19644-11.40044,3.15415-12.20198,3.91028l2.84043,2.97884c5.92803-4.44697 12.88884-.19172 18.88109-4.1551 5.4975,4.12238 13.86496-.76848 20.70916,4.34359l3.47585-3.16733c0,0-10.44796-4.83336-13.9224-3.91028-6.0214,1.59974-7.60103-.82785-10.26261-2.72281zm.0039-22.38625v6.22021m-3.13671-3.11011h6.27342" fill-rule="evenodd" stroke="#000" stroke-linecap="round" stroke-width="2"/>
<path d="m22.68221,36.57234c4.18228-2.11088 11.87583-1.67222 16.05811,0" fill="none" stroke="#000" stroke-width="2"/>
<path d="m21.03085,42.8535c6.0428-3.38153 12.62222-3.80525 19.25045-.18773" fill="none" stroke="#000" stroke-width="2"/>
<path d="m30.77216,23.89268v6.22021m-3.13671-3.11011h6.27342" fill="none" stroke="#fff" stroke-linecap="round" stroke-width="2"/>
</g>
</svg>
