<?xml version="1.0" encoding="UTF-8" standalone="no"?>
<svg viewBox="0 0 83.398552 89.46624" xmlns="http://www.w3.org/2000/svg">
<g transform="translate(-571.36243,-212.65269)">
<path d="m613.06171,264.16357c-6.02477,0-10.71541-.25821-14.0719-.7746 .60235,1.20492.90359,2.23772.90369,3.09838-.0001,1.29102-.2583,2.36684-.77458,3.22751 2.49582-.7746 7.14341-1.16191 13.94279-1.16191s11.44675.38731 13.94277,1.16191c-.5165-.86067-.77469-1.93649-.77459-3.22751-.0001-1.03278.25809-2.06558.77459-3.09838-4.04521.51639-8.69282.7746-13.94277.7746m0-46.73416c-1.80751,0-3.05548.81761-3.7439,2.45288-.17225.43033-.2583.86068-.2582,1.291-.0001,1.89347.94662,3.14144 2.84019,3.7439 .34416.08607.73147.12911 1.16191.12911 1.9794,0 3.27043-.90372 3.87299-2.7111 .08595-.34428.12898-.73158.12911-1.16191-.00013-1.72132-.86078-2.88323-2.58201-3.48569-.5165-.17214-.98988-.25819-1.42009-.25819m0,54.86744c-3.27065,0-7.48791.30124-12.6518.9037-1.46313.17215-2.3238.98977-2.58199,2.4529 0,1.0328 2.36671,1.6783 7.10048,1.9365-.43044-.08607-.2583-.12911.51641-.12911h7.6169c10.06967,0 15.10457-.60246 15.10469-1.80739-.00012-1.97952-2.49605-3.05536-7.4878-3.22749h-3.7439c-1.11897,0-2.0657-.04304-2.84021-.12911h-1.03278m-.12911-11.87718c9.63936,0 15.53492-.90369 17.6867-2.71111 1.46301-1.11887 2.53885-4.08816 3.22749-8.90789-.43044-4.30333-3.22761-8.43453-8.39151-12.3936-4.81982-3.78691-9.03709-5.89555-12.65178-6.32589-3.35671.43034-7.44486,2.53898-12.2645,6.32589-5.07792,3.95907-7.83205,8.09027-8.26239,12.3936 .60248,4.47546 1.54921,7.31567 2.84021,8.52059 .34426.34427.73157.6455 1.16189.90369 2.15168,1.46315 7.70286,2.19472 16.65389,2.19472m-2.19469-6.3259v-5.6804h-4.3894v-5.0349h4.3894v-5.55129h4.6476v5.55129h4.38938v5.0349h-4.38938v5.6804h-4.6476m2.06559,26.33637c-.77469,0-3.05548,1.50618-6.84229,4.51851-2.66817,1.80739-6.9714,2.88323-12.90999,3.22749-4.30333,0-7.746.21516-10.328.6455-2.75411.60246-4.13119,1.76437-4.13119,3.48569 .2582,1.72134 1.16189,2.58201 2.7111,2.58201l6.8423-1.0328c4.47544,0 9.16608-.60246 14.07187-1.80741 5.59422-1.46312 9.20902-3.78692 10.84441-6.97139 2.32368,4.56155 8.34834,7.31566 18.07398,8.26239l3.3566.51641h3.3566l6.97139,1.0328c1.54909,0 2.45278-.86067 2.71108-2.58201-.0001-1.72132-1.37717-2.88323-4.13118-3.48569l-13.81368-1.0328c-4.38951-.34427-8.60677-2.0656-12.6518-5.16398-1.80751-1.46315-3.18458-2.19472-4.1312-2.19472m.25821,11.23169c-3.3567,3.3566-8.43464,5.4222-15.23379,6.19681-2.75414.25819-7.57386.86066-14.45921,1.80738-1.80738.34428-2.84018,1.16191-3.09838,2.45291-1.63526-.43033-4.04514-3.0984-7.22959-8.00419-.7746-1.20493-1.33403-2.02257-1.6783-2.45291 2.84019-5.42218 6.36892-8.13328 10.58619-8.13328l7.6169.3873c3.52873,0 7.65991-.81764 12.39357-2.4529-6.11071-.77459-9.16608-2.62503-9.16608-5.5513l2.58199-9.81158v-.25822c-5.16398-5.68037-7.74599-11.01651-7.74599-16.00837 0-5.6804 2.79716-10.84439 8.39149-15.49199 4.90569-4.13121 8.52048-6.3259 10.84439-6.58411-1.89356-2.32378-2.8403-4.73364-2.84019-7.22959-.00011-3.95907 1.97943-6.45499 5.9386-7.48779 .94662-.25809 1.97942-.3872 3.0984-.38731 4.21715.00011 6.97127,1.59224 8.26239,4.77672l.6455,2.7111v.38728c-.0001,2.66806-.90382,5.07794-2.7111,7.22959 2.32369.25821 5.98153,2.49594 10.9735,6.7132 5.50814,4.56152 8.26228,9.6825 8.26239,15.3629-.00011,4.81972-2.58212,10.15585-7.746,16.00837-.0001,1.20495.43023,2.92628 1.29099,5.16401 .86056,2.75414 1.2909,4.3894 1.291,4.90579-.0001,2.92627-3.05548,4.77671-9.16609,5.5513 4.64749,1.63526 8.77868,2.4529 12.3936,2.4529l7.61689-.3873c4.21716,0 7.74589,2.7111 10.5862,8.13328l-4.3894,6.7132c-1.46325,1.89346-2.96941,3.14144-4.5185,3.7439-.34438-1.72133-2.84031-2.79717-7.4878-3.22749 .60235,0-.68864-.12911-3.87299-.3873-10.75844-1.03281-17.90196-3.31356-21.43058-6.84231"/>
</g>
</svg>
