<?xml version="1.0" encoding="UTF-8" standalone="no"?>
<svg viewBox="0 0 504 504" xmlns="http://www.w3.org/2000/svg">
<path d="m157.19107,457.85678c-1.46393-13.66999 1.34869-29.05808 7.55915-41.35678 5.12432-10.14777 12.11377-18.37533 33.98068-40 12.97006-12.82637 23.85014-24.52568 26.96931-29 10.14281-14.54945 17.90161-32.54191 21.66121-50.23182 1.92718-9.06786 2.51995-33.8014 1.05575-44.05163l-.82614-5.78344-6.17385,4.38702c-11.50741,8.17695-23.11438,15.00207-43.82358,25.76911-39.56468,20.57031-46.31837,26.66984-61.27343,55.33854-8.35767,16.02157-13.15037,23.1466-19.08148,28.36738-4.77262,4.20101-11.74479,7.20484-16.72318,7.20484-6.56471,0-12.76092-6.18725-12.76847-12.75l-.00373-3.25h-5.45078c-8.08445,0-15.23745-1.79662-22.77366-5.72005-20.56882-10.70835-27.73323-33.70249-18.80451-60.35294 4.27106-12.74824 8.35311-20.18345 23.84218-43.42701 16.09734-24.15635 21.04352-33.03632 25.34375-45.5 3.21846-9.3283 3.27867-9.82532 3.33114-27.5 .0669-22.532-.05914-22.25114 17.95092-40 15.05309-14.83478 21.56096-23.86317 21.56096-29.91158-1e-005-2.16055-.92674-15.13444-2.05942-28.83088s-1.92018-25.99873-1.75-27.33842c.29211-2.29945 2.02247-1.4073 30.912,15.93778l30.60257,18.37358 18.19178-19.36524c10.00547-10.65088 18.536-19.36524 18.95673-19.36524s6.2428,12.0375 12.93794,26.75 12.54727,26.6654 13.00473,26.56199c6.72629-1.52045 20.92788-2.46564 30.20367-2.0102 35.45505,1.74082 65.89137,15.42881 91.5,41.1499 23.64339,23.74724 39.06979,51.14883 54.07275,96.04831 20.99369,62.82823 34.7228,142.81121 37.0848,216.04845l.6596,20.45155h-154.57895-154.57901l-.71143-6.64322z"/>
<path d="m126.71787,187.20863c6.42843-3.17706 10.29151-6.00156 16-11.69846 6.91547-6.90144 15.02544-18.64755 15.02544-21.76217-1e-005-3.34672-9.35049-4.18058-15.50858-1.38302-5.49297,2.49542-9.07417,6.87586-18.28207,22.36227-11.24599,18.91419-10.86592,18.09615-8.04518,17.31583 1.28471-.35539 6.14938-2.5309 10.81039-4.83445z" fill="#fff"/>
<path d="m76.49318,304.54321c1.23757-1.83644 2.25013-4.41978 2.25013-5.74075 0-5.68629-5.57263-11.30787-11.20034-11.29872-4.3513.00706-8.80051,3.75642-11.52844,9.71501-2.06093,4.50167-2.69281,7.71641-3.07443,15.64146l-.48034,9.97524 10.89165-7.47665c5.9904-4.11215 11.9042-8.97917 13.14177-10.8156v1e-005z" fill="#fff"/>
<path d="m458.38177,454.95245c2.50789-2.50786 2.53729-2.71414 1.89249-13.24999-3.6448-59.55042-10.0063-105.28752-22.1431-159.20246-10.2813-45.67234-20.78573-77.34122-34.4964-104-9.03208-17.5618-18.0163-30.13681-30.38329-42.52673-19.28084-19.31661-40.06067-30.74256-66.58938-36.61472-18.53013-4.10165-53.47947-2.71141-58.90493,2.34318-2.9437,2.74246-2.43046,8.41837.99115,10.96126 2.38078,1.76935 3.00062,1.78697 12.5.35523 37.42702-5.64095 72.03615,5.2173 99.64579,31.26284 27.06161,25.52854 46.04886,68.30646 62.23709,140.21894 11.72516,52.08648 18.16967,97.19405 21.64467,151.49963 .96431,15.06867 1.328,17.25524 3.202,19.25 2.85679,3.04096 7.1895,2.9172 10.4039-.29717l1e-005-1e-005z" fill="#fff"/>
</svg>
