<?xml version="1.0" encoding="UTF-8" standalone="no"?>
<svg viewBox="0 0 504 504" xmlns="http://www.w3.org/2000/svg">
<path d="m155.20596,472.75244c-8.07535-4.03204-9.2765-27.80874-2.42281-47.95944 5.85737-17.22141 12.61645-26.32138 38.45478-51.77304 23.27796-22.92963 29.47878-30.47751 36.72252-44.70022 8.645-16.974 12.05438-30.40116 12.9624-51.04978 .32046-7.2875.34192-13.25.04767-13.25s-5.19915,2.85102-10.89978,6.3356-18.53478,10.48365-28.52033,15.55348c-37.89899,19.24195-43.84913,24.89148-60.75903,57.68933-3.14149,6.09314-7.72568,13.64431-10.18708,16.78039-7.88659,10.04835-20.5638,17.6412-29.45411,17.6412-3.79439,0-10.7463-2.61166-14.42904-5.42062-1.71719-1.30975-3.93418-4.18212-4.92665-6.38303-1.63373-3.62297-2.24377-4.06638-6.44651-4.68571-28.70576-4.2302-49.06347-29.20405-46.80678-57.42031 1.4509-18.14098 9.61361-36.27694 30.14166-66.96887 14.0491-21.00511 19.75872-31.19171 23.67574-42.24014 2.03043-5.72709 2.26673-8.27798 2.30486-24.88132l.04249-18.5 3.23917-6.83914c2.6987-5.69799 5.53885-9.11855 17.02155-20.5 7.58031-7.51347 15.08691-15.59577 16.68134-17.96066l2.89895-4.29979-2.19455-27.7002c-3.02501-38.18246-3.03276-38.08316 3.17531-40.69346 4.22878-1.77807 4.0243-1.87668 35.99478,17.35875 14.74909,8.87397 27.15886,16.1345 27.57725,16.1345s8.31951-8.09013 17.55806-17.97806c13.92007-14.89852 17.39095-18.08942 20.26262-18.62815 6.10635-1.14556 7.55403.89881 19.98313,28.21946l11.39308,25.04333 6.20465-.90855c8.90869-1.30452 30.59904-.15434 41.86322,2.2199 20.45353,4.31115 40.76426,13.10576 57.20656,24.77062 10.97762,7.78799 28.65765,25.6692 36.84225,37.26146 17.68534,25.04861 30.50289,53.0843 42.25224,92.41784 20.17488,67.53984 32.60327,146.52227 32.93391,209.29516 .10412,19.76755.05627,20.26341-2.17123,22.5l-2.27769,2.287-156.72232.24035c-123.64927.18964-157.24986-.02305-159.22229-1.00788v1e-005z"/>
<path d="m155.79091,67.8592c-8.84672-5.31342-16.21166-9.53672-16.36652-9.3851s.25647,7.4707.91408,16.26462l1.19565,15.98896 15.17087-6.60386 15.17086-6.60386-16.08494-9.66076z" fill="#fff"/>
<path d="m458.84439,455.47241c2.88737-2.88735 2.88673-3.01163-.21959-42.45245-5.80317-73.68271-23.7723-160.39198-43.62277-210.5-5.81352-14.67489-16.89467-35.65192-24.56372-46.5-16.46172-23.28554-40.92997-42.35495-65.81357-51.29199-14.92928-5.36191-26.48768-7.21539-44.41878-7.12289-10.71728.05528-19.11607.62875-23.9645,1.6363-4.10548.85315-7.9871,1.35065-8.62584,1.10554s-4.67031-8.18144-8.95905-17.6363-8.9156-19.63615-10.28191-22.62509l-2.48419-5.43443-15.59225,16.10154-15.59227,16.10154-27.1653,11.69042-27.16531,11.69041-6.55024,8.7716c-3.60263,4.82438-11.0699,12.9421-16.59393,18.03939-14.83037,13.68467-14.51069,12.94066-14.59713,33.97396-.06189,15.0621-.38278,18.54481-2.3034,25-3.78631,12.7257-12.22047,28.62139-26.5297,50-15.69662,23.45142-23.86327,39.04316-26.19534,50.01202-1.98205,9.32256-1.39844,20.96752 1.35868,27.1102 4.86746,10.84437 16.83101,19.44777 28.56727,20.54372l6.4212.59962 6.69813-8.88278c3.68397-4.88553 7.67844-9.42933 8.8766-10.09734 4.84537-2.70143 10.06021-.9855 12.15649,4.00009 1.76395,4.19521.88626,6.21643-7.60873,17.52221-3.84653,5.11925-6.84946,10.06925-6.67317,11 .58012,3.06283 6.79434,2.7062 11.43618-.65633 6.42666-4.65544 10.71226-10.65808 19.42918-27.21348 4.47069-8.49086 10.08352-18.18035 12.47294-21.53221 9.17344-12.86841 23.00561-22.88692 51.81004-37.52556 28.33912-14.40217 53.40227-30.38481 60.79871-38.77102 8.72112-9.88815 12.41785-21.42094 11.55313-36.04262-.64781-10.95374.45954-14.22799 5.39352-15.94798 2.50438-.87304 3.8295-.77613 6.46076.47248 4.18183,1.98441 5.47457,5.43134 6.16609,16.44107 1.0554,16.80292-6.47168,36.64493-18.57095,48.95463l-6.64571,6.76129 .80527,6.37598c1.19897,9.49312-.00401,31.08807-2.30491,41.37601-4.53484,20.27643-13.06871,39.58574-24.23813,54.84281-3.31221,4.52438-15.6641,17.73225-27.73515,29.65719-21.53182,21.2712-27.75808,28.80213-32.65426,39.49684-3.11546,6.80501-5.33326,17.26291-5.35546,25.25316l-.01736,6.25h141.44098c93.2153,0 141.65171.34096 142.05902,1 1.20934,1.95675 6.53623,1.05467 9.13844-1.54754l-1e-005-1e-005z" fill="#fff"/>
<path d="m115.27895,190.86459c4.52417-8.52249 17.56843-29.50557 20.21896-32.52436 5.39298-6.14227 13.75128-8.77513 20.14295-6.34502 1.41082.53639 2.5651,1.55912 2.5651,2.27275 0,3.11462-8.10998,14.86074-15.02544,21.76217-5.7085,5.69689-9.57157,8.5214-16,11.69846-4.66101,2.30355-9.52568,4.47906-10.81039,4.83445-2.1847.60438-2.2553.49448-1.09118-1.69845z"/>
<path d="m53.40275,313.38016c.38162-7.92504 1.0135-11.13978 3.07443-15.64145 2.72794-5.95859 7.17714-9.70794 11.52844-9.71501 5.62771-.00916 11.20034,5.61243 11.20034,11.29872 0,4.31172-4.31337,8.95141-15.3919,16.55634l-10.89165,7.47665 .48034-9.97525z"/>
</svg>
