<?xml version="1.0" encoding="UTF-8" standalone="no"?>
<svg viewBox="0 0 78.234558 84.947739" xmlns="http://www.w3.org/2000/svg">
<g transform="translate(-70.53948,-214.20189)">
<path d="m109.65676,299.14963c-17.12725,0-25.81998-2.88321-26.07818-8.64969-.43034-7.91812-1.76437-13.89975-4.0021-17.94489-.94673-1.63526-2.28076-3.61479-4.0021-5.93859-2.92626-3.87299-4.56153-7.14352-4.90579-9.81159-.08607-.68853-.12911-1.42011-.12911-2.19471 0-5.42218 2.28076-9.68247 6.84229-12.78088 1.11887-.68854 2.28076-1.24797 3.48571-1.6783 4.56152-1.63527 9.08001-1.37707 13.55549.77461 1.63526.77458 3.27052,1.80738 4.90579,3.09838l.12911.12911c0-1.80741.08605-3.7439.2582-5.80948 0-.60249.30122-1.42011.90369-2.45292 1.37707-2.23772 3.01233-4.0021 4.90579-5.29309 .34426-.17214.68853-.38731 1.0328-.6455v-3.0984l-5.29309-3.09839v-4.64759h4.7767l1.6783-4.90582h3.87299l1.6783,4.90582h4.7767v4.64759l-5.29309,3.09839v3.0984c4.47546,2.84019 6.75622,5.68039 6.84228,8.52059 .17213,1.72133.2582,3.6148.2582,5.6804l.12911-.12911c5.42219-4.56153 11.10259-6.02465 17.04118-4.38938 1.54921.43031 3.01234,1.07581 4.3894,1.9365 4.81972,2.92625 7.27263,7.27262 7.35871,13.03907 0,3.44268-1.72134,7.53084-5.16401,12.26449-2.8402,3.95906-4.60456,6.84231-5.2931,8.6497-1.46311,3.87298-2.3238,8.86485-2.58199,14.97559-.17212,5.76648-8.86486,8.64969-26.07818,8.64969m0-43.50667 3.7439-5.93859c.60247-1.291 1.07582-2.49593 1.42008-3.6148 .17215-.60246.25822-1.85042.25822-3.7439 0-5.07791-1.76437-7.6169-5.29312-7.6169-3.70085,0-5.55129,2.53899-5.55129,7.6169 0,1.89348.08607,3.14144.2582,3.7439 .68853,2.3238 2.15167,5.07794 4.3894,8.26239 .51641.60247.77461,1.0328.77461,1.291m34.46968-.2582c0-3.87299-1.29099-6.84228-3.87302-8.90788-2.15165-1.80741-4.6906-2.7111-7.61689-2.7111-3.70084,0-7.70295,1.89345-12.00628,5.68039-5.07793,4.3894-7.96116,10.328-8.6497,17.81579 0,.60246 1.59223,1.29099 4.77669,2.0656 3.70087.68854 9.98373,1.0328 18.84859,1.0328l5.8095-7.746c1.8074-2.75412 2.71111-5.16399 2.71111-7.2296m-34.46968,17.42849c-2.15168.94675-8.69274,1.76437-19.62319,2.4529-1.63526.08608-2.9693.17213-4.0021.2582 .86068,3.27053 1.42011,6.88532 1.6783,10.84439 5.93859-1.89347 13.25425-2.84019 21.94699-2.84019 8.86485,0 16.18052.94672 21.94699,2.84019 .2582-4.30333.81763-7.91813 1.6783-10.84439l-19.10681-1.5492c-1.63526-.25819-3.14142-.64549-4.51848-1.1619m-34.46968-17.42849c0,2.66808 2.10864,6.71321 6.3259,12.13539 1.0328,1.291 1.76437,2.23775 2.19469,2.84021h2.3238c8.86486,0 15.31986-.60246 19.36499-1.80741 1.291-.34426 1.9365-.77458 1.9365-1.29099-.68854-7.48779-3.57177-13.42639-8.64969-17.81579-4.21726-3.78694-8.21936-5.68039-12.0063-5.68039-1.20492,0-2.49592.25819-3.87299.7746-3.44267.86066-5.76647,3.14142-6.9714,6.84229l-.6455,3.4857v.51639m34.46968,39.11728c8.09025,0 13.6846-.51641 16.78299-1.54919 .7746-.25822 1.1619-.55945 1.1619-.90372 0-2.23773-5.93859-3.35659-17.81581-3.35659-4.56152,0-8.99394.30125-13.29726.90371-3.18448.51639-4.77671,1.33403-4.77671,2.45288 0,1.291 5.07794,2.10865 15.23379,2.45291h2.7111"/>
</g>
</svg>
