<?xml version="1.0" encoding="UTF-8" standalone="no"?>
<svg viewBox="0 0 78.36364 84.689529" xmlns="http://www.w3.org/2000/svg">
<g transform="translate(-69.06861,-71.63108)">
<path d="m111.54247,124.04562c0,1.54922-1.07583,2.32381-3.22749,2.32381-2.40987,0-3.6148-.77459-3.6148-2.32381 0-7.14352-2.36684-12.95302-7.10049-17.42847-4.21726-3.78694-8.30543-5.6804-12.26449-5.6804-5.85253,0-9.51036,2.3238-10.97349,6.9714l-.5164,3.4857v.2582c0,3.44265 2.53896,8.21936 7.61689,14.33008 1.37707,1.54921 2.53896,2.75413 3.4857,3.61481 1.37706,1.11885 3.65783,1.67828 6.84229,1.67828 3.3566,0 8.7788-.6455 16.26658-1.93649 7.57387,1.29099 13.0391,1.93649 16.39569,1.93649 3.27053,0 5.55129-.55943 6.84231-1.67828 3.61479-3.18448 6.62712-7.05747 9.03697-11.619 1.37708-2.58201 2.06561-4.69063 2.06561-6.32589 0-5.4222-2.45291-8.82184-7.3587-10.19889-1.291-.34427-2.66806-.51641-4.13119-.51641-3.95905,0-8.00419,1.93649-12.1354,5.80951-4.81972,4.30333-7.22959,10.06978-7.22959,17.29936m28.01468-12.39357c0,3.44265-2.36682,7.48778-7.1005,12.13538l-3.35659,2.84022-1.291.77458c-1.63527.2582-3.3566.3873-5.16399.3873-5.33613,0-8.0042-1.07584-8.0042-3.2275 .17213-6.62712 2.15167-11.79113 5.9386-15.49197 3.27052-3.27055 6.62713-4.90581 10.06978-4.90581 4.3894,0 7.18658,1.59224 8.39149,4.7767l.51641,2.7111m-12.26448,32.79137c0-2.23774-6.3259-3.3566-18.97769-3.3566-3.44266,0-6.49803.12909-9.16609.3873l-3.0984.2582c-4.6476.60247-6.97139,1.46312-6.97139,2.58199 0,1.291 1.1619,1.9365 3.4857,1.9365l15.62109-1.291 15.492,1.291c2.40984,0 3.61479-.60246 3.61479-1.80739m7.22959,3.09839c-.17214,5.85254-8.95093,8.7788-26.33638,8.7788-17.21332,0-25.94908-2.92626-26.20728-8.7788-.08607-5.50826-.9037-10.41405-2.4529-14.71738-.94673-2.32379-2.75413-5.29309-5.4222-8.90789-3.3566-4.56154-5.0349-8.60666-5.0349-12.1354 0-5.50826 2.36683-9.76855 7.10049-12.78089 2.66806-1.72133 5.63736-2.58199 8.90789-2.58199 4.47546,0 8.73576,1.63527 12.78089,4.90579 0-3.95906.3873-6.67016 1.1619-8.13328 .60246-1.63528 2.58199-3.61482 5.93859-5.93861v-2.9693l-5.29309-3.2275v-4.6476h4.77669l1.5492-4.77668h4.38939l1.6783,4.77668h4.64759v4.6476l-5.16399,3.2275v2.9693c3.27053,2.40986 5.29309,4.47546 6.06769,6.1968l.9037,3.74388c.08608,1.0328.17214,2.40988.2582,4.13121 4.04513-3.27052 8.21937-4.90579 12.52271-4.90579 5.76645,0 10.24192,2.19469 13.42638,6.58409 1.80741,2.582 2.7111,5.50826 2.7111,8.77879 0,3.52874-1.6783,7.61689-5.0349,12.26448l-2.9693,4.13122c-3.18445,4.81972-4.81971,11.27472-4.90579,19.36497m-57.70766-35.88976c0-3.61479 1.8074-5.93859 5.4222-6.97139 1.0328-.34428 2.10863-.51641 3.2275-.51641 3.6148,0 7.05746,1.63526 10.32799,4.90581 3.70086,3.78692 5.63736,8.95092 5.80949,15.49197 .08607,1.89347-1.89347,2.96931-5.93859,3.2275h-1.9365c-1.72133,0-3.48569-.1291-5.29309-.3873-2.8402-1.37707-5.6804-4.08815-8.52059-8.13329-2.0656-3.01233-3.0984-5.55129-3.0984-7.61689"/>
</g>
</svg>
