<?xml version="1.0" encoding="UTF-8"?>
<!DOCTYPE svg PUBLIC "-//W3C//DTD SVG 1.0//EN" "http://www.w3.org/TR/2001/REC-SVG-20010904/DTD/svg10.dtd">
<svg viewBox="0 0 64 64" xmlns="http://www.w3.org/2000/svg">
<path d="m14.89117,56.08699c-3.43046-8.18063 1.76821-17.01123 8.37655-21.386l1.01956-.55426-.60477-.56154c-4.41433-5.30864-2.99382-12.31781 3.04854-15.43763-1.10942-1.82632-1.46675-3.68021-1.05689-5.80475 .86223-3.14055 3.51353-4.28774 6.37022-4.5397 2.93247.11981 5.21226,1.63402 6.2284,4.5397 .6476,2.12841-.14233,3.95978-1.0569,5.80475 6.69965,3.14937 6.69717,9.86507 3.04853,15.43763l-.60476.56154c6.98295,3.83312 13.20406,13.7259 9.36177,21.94654-.35904.14221-33.79104.13606-34.13025-.00628z" fill="#fff" stroke="#000" stroke-width="2"/>
</svg>
