<?xml version="1.0" encoding="UTF-8" standalone="no"?>
<svg viewBox="0 0 744.09447 1052.362179" xmlns="http://www.w3.org/2000/svg">
<path d="m84.85396,930.51136c-57.58452-137.32226 29.68171-285.55502 140.61101-358.99103l17.1146-9.30397-10.15184-9.42614c-74.1001-89.11225-50.25506-206.77004 51.17363-259.14016-18.62304-30.65703-24.62124-61.77696-17.74128-97.44004 14.47367-52.71792 58.97905-71.97513 106.93217-76.20442 49.22519,2.01097 87.49439,27.42909 104.55157,76.20442 10.87076,35.72805-2.3892,66.46989-17.74137,97.44004 112.46202,52.86615 112.42047,165.59766 51.17342,259.14016l-10.1517,9.42614c117.21766,64.34374 221.64682,230.40655 157.14919,368.40039-6.02699,2.38713-567.2253,2.28387-572.9194-.10096z" stroke="#000" stroke-width="36.82788"/>
</svg>
