<?xml version="1.0" encoding="UTF-8" standalone="no"?>
<svg viewBox="0 0 89.466225 83.398521" xmlns="http://www.w3.org/2000/svg">
<g transform="translate(-232.78988,-215.75111)">
<path d="m274.61825,270.10217h5.6804c1.29089,0 2.84008.04301 4.64759.12908l12.78089.77461h.12911c1.54909,0 2.32367-.21518 2.32379-.6455v-.51641c-.00012-2.58199-5.72353-4.26029-17.1703-5.03488-2.06571-.17215-3.87309-.25821-5.42218-.25821-8.43464,0-14.93256.86067-19.49409,2.58201-2.0656.77458-3.0984,1.67828-3.0984,2.71108v.51641c0,.43032.77461.6455 2.3238.6455l17.29939-.90369m23.88348,5.80948c-6.79937-.86066-13.77077-1.291-20.91418-1.291-7.48791,0-14.45921.43034-20.91419,1.291 1.0328.86066 1.54919,2.53896 1.54919,5.03491 0,1.63526-.25819,2.62502-.77458,2.96929 5.16398-.94673 11.87709-1.4201 20.13958-1.4201s14.97547.47337 20.13958,1.4201c-.51651-.34427-.77471-1.33403-.77461-2.96929-.0001-2.49595.51631-4.17425 1.54921-5.03491m-20.91418,11.10259c-4.38951,0-9.29531.21517-14.7174.64551-4.21726.34425-6.3259,1.33404-6.3259,2.9693 0,2.15165 7.01443,3.22749 21.0433,3.22749s21.04317-1.07584 21.04327-3.22749c-.0001-.68854-.55953-1.33404-1.6783-1.93651-3.27063-1.11886-9.72563-1.6783-19.36497-1.6783m0-67.51925c-2.15179,0-3.22762,1.0328-3.22749,3.0984-.00013,2.23773 1.0757,3.3566 3.22749,3.3566 2.06548,0 3.09828-1.11887 3.09838-3.3566-.0001-2.0656-1.0329-3.0984-3.09838-3.0984m0-3.74388c3.09828,0 5.24995,1.42008 6.45498,4.26029l.6455,2.58199v.38731c-.00011.51639-.34437,1.59223-1.0328,3.22749-1.20503,3.52874-1.80749,6.58409-1.80739,9.16608-.0001,4.21728.94663,10.45711 2.84019,18.7195 4.64749-9.81158 6.9713-17.21332 6.9714-22.20519l-.77459-5.55129c-.00013-3.01233 1.33391-5.164 4.0021-6.455 .9466-.51639 1.9794-.77458 3.09838-.77458 3.0983,0 5.29299,1.37704 6.58409,4.13118 .51631,1.0328.77451,2.0656.77461,3.0984-.0001,2.23773-.77471,4.0021-2.3238,5.2931-2.3239,2.3238-3.52885,6.11072-3.61479,11.36078-.0001,2.23775.21505,5.85254.6455,10.8444 5.59422-5.76646 8.39137-10.4571 8.39149-14.07189l-.64549-5.03491c-.00013-2.84019 1.29087-4.94882 3.87299-6.32587 1.03269-.60248 2.10851-.90372 3.2275-.90372 2.92615,0 5.12084,1.33404 6.58408,4.0021l.77461,2.45291v.77458c-.0001,3.52875-1.97964,6.19682-5.93859,8.0042-.17225,3.70087-1.59235,10.97349-4.26029,21.81789-.17225.51641-.30136.98976-.38731,1.4201-.00011,1.20493-1.37717,3.27053-4.13121,6.19679-3.70097,3.70087-5.55139,6.58409-5.55129,8.6497-.0001.94672 1.0327,3.48571 3.0984,7.61689 .34418.77461.51629,1.93649.51639,3.48571v.90369c-.08617.25819-.12921.55943-.12908.90369v.12911l.12908.12909c-.0001,3.0984-8.30553,4.81974-24.91628,5.164h-3.22749l-5.42218-.1291h-.12911c-8.09037-.2582-14.24403-.94673-18.46128-2.06561-2.66807-.77458-4.0021-1.76434-4.0021-2.96929 .08607-.08605.08607-.60246 0-1.54919-.08608-.17213-.08608-.34427 0-.51639 0-1.97954.6455-4.2603 1.9365-6.84231 1.0328-2.06558 1.54919-3.48568 1.54919-4.26029 0-1.37708-.73156-3.01234-2.19469-4.9058l-6.32591-7.22959c-.68852-.94673-1.0328-1.85045-1.0328-2.7111-2.66806-10.93046-4.17421-18.03094-4.51849-21.30149-.08606-.68854-.1291-1.33404-.1291-1.9365-3.95906-1.80738-5.93859-4.47545-5.93859-8.0042 0-2.84019 1.29099-4.94882 3.87298-6.32587 1.11887-.60248 2.23775-.90372 3.3566-.90372 3.01234,0 5.16401,1.37707 6.45502,4.13121 .51639.94673.77458,1.97953.77458,3.09838l-.6455,5.03491c0,3.78693 2.75413,8.47756 8.26239,14.07189 .43034-3.78694.6455-7.40173.6455-10.8444 0-4.73365-.55943-7.8751-1.67828-9.42429-.43034-.60246-1.07584-1.29099-1.93651-2.0656-1.5492-1.0328-2.3238-2.75412-2.3238-5.16399 0-3.01233 1.4201-5.20702 4.26031-6.58408 .94673-.43035 1.97954-.6455 3.09838-.6455 3.01234,0 5.16401,1.37704 6.45501,4.13118 .51628.94673.77448,1.97954.77458,3.0984l-.77458,5.42219v.1291c0,4.90579 2.32367,12.30754 6.9714,22.20519 1.80728-7.83205 2.71098-14.0719 2.71108-18.7195-.0001-3.44265-.6456-6.71318-1.9365-9.81158-.51649-1.20493-.7747-2.0656-.77458-2.58199-.00012-3.01234 1.37694-5.16399 4.13118-6.45501 .94662-.51639 1.97942-.77458 3.09841-.77458m37.30987,15.87928c-1.37718,0-2.36694.68854-2.9693,2.0656-.08618.34427-.12922.68852-.12911,1.03278-.00011,1.72134.77449,2.79718 2.3238,3.22752 .25809.08605.51631.12909.77461.12909 2.15154,0 3.22738-1.11886 3.22749-3.35661-.00011-2.06558-1.07595-3.09838-3.22749-3.09838m-16.9121-8.26239c-1.46324,0-2.453.73157-2.96929,2.19469l-.12909,1.0328c-.00012,1.54919.73144,2.58199 2.19469,3.0984 .25809.08606.55932.12909.90369.12909 2.23763,0 3.3565-1.07582 3.3566-3.22749s-1.11897-3.22749-3.3566-3.22749m-41.05377,0c-2.15165,0-3.22749,1.07584-3.22749,3.22749s1.07584,3.22749 3.22749,3.22749c2.06561,0 3.09841-1.07582 3.09841-3.22749s-1.0328-3.22749-3.09841-3.22749m-16.91209,8.26239c-2.15165,0-3.22749,1.0328-3.22749,3.09838 0,2.23775 1.07584,3.35661 3.22749,3.35661 2.06561,0 3.09841-1.11886 3.09841-3.35661 0-1.46311-.73157-2.45288-2.19469-2.96929-.25822-.08605-.55944-.12909-.90372-.12909m37.56809,8.2624c-1.20505,7.57385-2.75425,13.03907-4.6476,16.39567l-1.93649,3.09841v.12911c-.25832-.25822-1.37718-1.54922-3.3566-3.87302-2.49605-2.92626-5.12098-8.47755-7.8751-16.65387 .17213,1.20492.2582,2.45289.2582,3.74388 0,4.04514-.73157,10.28497-2.19471,18.7195-4.64758-2.75414-9.16608-7.14354-13.55549-13.16821 1.46314,7.40174 2.58202,12.2645 3.3566,14.5883 .51641,1.72133 1.16191,2.7111 1.9365,2.96929 7.05746-4.04511 16.39559-6.06768 28.01469-6.06768 11.70494,0 21.04317,2.02257 28.01466,6.06768 1.54909-.51639 3.27043-6.36891 5.16401-17.55759-4.47557,6.19681-8.95105,10.58622-13.42639,13.16821-1.46325-7.48781-2.1948-13.38336-2.19469-17.68669-.00011-1.11886.08594-2.7111.25819-4.77669-1.72144,5.16399-3.70097,9.76854-5.93859,13.81368-1.20505,1.80739-2.53909,3.52873-4.00211,5.16399-.68863.68853-1.11897,1.20494-1.29099,1.54922l-2.84021-5.03491c-.08615-.34426-.21526-.68853-.38728-1.0328-.68864-1.89346-1.80751-6.41196-3.3566-13.55548"/>
</g>
</svg>
