<?xml version="1.0" encoding="UTF-8" standalone="no"?>
<svg viewBox="0 0 89.595322 83.398537" xmlns="http://www.w3.org/2000/svg">
<g transform="translate(-230.9317,-73.05116)">
<path d="m254.42788,142.89421c0,1.37707.98976,2.0656 2.9693,2.0656l8.90789-.6455 7.746-.3873h1.9365l15.10468.77461 3.0984.25819c1.9794,0 2.9692-.68853 2.9693-2.0656-.0001-2.49592-5.76658-3.87299-17.2994-4.13119h-4.00209c-9.72564,0-16.22356.73158-19.49409,2.19469-1.29099.51641-1.93649,1.16191-1.93649,1.9365m-16.13749-53.96376c-1.63528,0-2.66806.81765-3.0984,2.45291-.08607.2582-.12911.51639-.12911.77461 0,1.63526.81765,2.66806 2.45291,3.09838 .25819.08607.51639.12911.7746.12911 2.06559,0 3.09839-1.07584 3.09839-3.22749s-1.0328-3.22752-3.09839-3.22752m16.91207-8.13329c-2.23772,0-3.35657,1.07584-3.35657,3.2275s1.11885,3.2275 3.35657,3.2275c2.06561,0 3.09841-1.07582 3.09841-3.2275s-1.0328-3.2275-3.09841-3.2275m41.18288,0c-1.46324,0-2.45301.73158-2.96929,2.1947l-.12911,1.0328c-.0001,2.15168 1.0327,3.2275 3.0984,3.2275 2.15155,0 3.22739-1.07582 3.22749-3.2275s-1.07594-3.2275-3.22749-3.2275m16.78299,8.13329c-2.06572,0-3.0985,1.07584-3.09839,3.22752s1.03267,3.22749 3.09839,3.22749c2.15156,0 3.22738-1.07584 3.22751-3.22749-.00013-1.63526-.81775-2.66807-2.45291-3.09841-.2583-.08607-.51651-.12911-.7746-.12911m-9.2952,61.70977c-.00011,2.40986-4.43253,4.08816-13.29727,5.0349l-12.52271.77458h-2.3238c-10.50022,0-18.50432-.90369-24.01257-2.71108-2.66807-.77461-4.0021-1.80741-4.0021-3.0984 0-2.49593.68853-5.33614 2.0656-8.5206 .94673-1.89347 1.42011-3.22751 1.42011-4.00209 0-1.63526-1.97954-4.81975-5.93861-9.55339-2.15166-2.49594-3.39962-4.21728-3.74389-5.16402 0-.51639-.2582-1.67829-.77461-3.48568l-1.6783-6.455c-1.11885-4.21727-1.85042-8.69271-2.19469-13.42639-3.95906-1.63526-5.93859-4.26029-5.93859-7.87508 0-3.09841 1.42008-5.2931 4.26029-6.58409 .94673-.43035 1.97953-.64552 3.0984-.64552 2.84019,0 4.94883,1.29101 6.32589,3.87301 .60248,1.11885.90371,2.23773.90371,3.3566l-.6455,4.90579c0,3.87299 2.75411,8.60666 8.26239,14.20099 .43032-3.52873.6455-7.22959.6455-11.10261 0-5.76645-1.0328-9.42428-3.0984-10.97347-.17213-.17215-.34428-.30123-.51639-.3873-1.54921-.94674-2.3238-2.62503-2.3238-5.0349 0-3.18446 1.46311-5.37917 4.38938-6.5841 .94675-.43033 1.93651-.6455 2.96929-.6455 3.01234,0 5.16401,1.37708 6.45501,4.13119 .51639.94675.77448,1.97953.7746,3.09841l-.90371,5.55129c0,4.81974 2.36673,12.17841 7.10051,22.07609 1.80728-8.09027 2.711-14.28705 2.7111-18.59039-.0001-3.61479-.64562-6.92836-1.93649-9.94068-.51652-1.11888-.77471-1.97954-.77461-2.58201-.0001-3.18447 1.41998-5.37916 4.26029-6.58411 .94662-.43032 1.93639-.6455 2.9693-.6455 3.01223,0 5.12084,1.42011 6.32589,4.26032 .43022.94673.6454,1.93649.6455,2.96929-.0001.17213-.73167,2.4529-2.19469,6.8423-.34439,1.11885-.51651,3.01233-.51641,5.68039-.0001,4.30334.90359,10.50012 2.7111,18.59039 4.64749-9.81161 6.9713-17.1703 6.9714-22.07609l-.7746-5.42218v-.12911c-.00012-3.18446 1.46303-5.37917 4.3894-6.5841 .94662-.43033 1.93639-.6455 2.96929-.6455 3.01223,0 5.16389,1.37708 6.455,4.13119 .51629.94675.77449,1.97953.77459,3.09841-.0001,2.40987-.77471,4.1312-2.3238,5.16398-2.40997,1.54922-3.61489,5.33614-3.61479,11.3608-.0001,3.78694.21505,7.44477.6455,10.9735 5.50814-5.59433 8.26228-10.328 8.26239-14.20099l-.6455-4.90579c-.0001-3.01234 1.37697-5.16401 4.13121-6.45501 .94662-.51639 1.97942-.7746 3.09839-.7746 3.0983,0 5.29299,1.37706 6.58409,4.1312l.7746,2.45291v.6455c-.0001,3.44264-1.97964,6.06767-5.93859,7.87508-.51651,5.9386-1.97964,13.21123-4.3894,21.81788-.17223.68854-.25831,1.20493-.2582,1.54919-.00011.60247-.64561,1.59224-1.9365,2.96931l-1.54919,1.93649c-4.13131,4.73367-6.19691,8.0042-6.19681,9.81161-.0001.51639 1.0327,3.18446 3.09841,8.00419 .34417,1.72132.51628,3.2275.51639,4.5185m-28.01467-73.84515c-1.63538,0-2.66818.81764-3.09841,2.4529-.08618.2582-.12919.51639-.12908.77459-.00011,1.63527.81751,2.66807 2.45288,3.09841 .25809.08607.51631.12911.77461.12911 2.0655,0 3.09828-1.07584 3.0984-3.22752-.00012-1.54919-.73167-2.582-2.19471-3.09839-.2583-.08606-.55953-.1291-.90369-.1291m23.23798,50.34897c-.0001-2.75414-7.7461-4.13122-23.23798-4.13122-15.57806,0-23.36708,1.42011-23.36708,4.26032 0,1.20492 1.11885,1.80739 3.35658,1.80739 2.58202,0 5.80951-.21516 9.68251-.6455l8.39149-.25819h2.06561c2.40974,0 6.97126.21515 13.68458.6455l6.32589.25819c2.0655,0 3.0983-.6455 3.0984-1.93649"/>
</g>
</svg>
