<?xml version="1.0" encoding="UTF-8" standalone="no"?>
<svg viewBox="0 0 64.808144 75.781631" xmlns="http://www.w3.org/2000/svg">
<g transform="translate(-412.72685,-223.368)">
<path d="m430.41352,249.05887v22.85068h29.43479v-22.85068h-29.43479m-15.23379,50.09076-2.45288-2.4529v-8.90789l13.16819-13.2973v-25.81997l-11.3608-9.94069v-11.74809l3.74391-3.61479h11.61898l2.19469,2.19469v3.3566h3.74391v-3.3566l2.1947-2.19469h14.20098l2.19471,2.19469v3.3566h3.61479v-3.3566l2.32381-2.19469h11.61899l3.74388,3.61479v11.74809l-11.36078,9.94069v25.81997l13.16818,13.2973v8.90789l-2.4529,2.4529h-59.90236m2.06562-10.19888v5.03488h55.77114v-5.03488h-55.77114m12.65178-12.78091-8.5206,8.2624h47.50877l-8.52058-8.2624h-30.46759m10.32801-47.37966v3.3566l-1.93652,1.80741h-8.39149l-1.93649-1.80741v-3.6148h-7.22961l-1.6783,1.80741v7.2296l8.7788,7.10048h34.59877l8.7788-7.10048v-7.2296l-1.6783-1.80741h-7.22959v3.6148l-1.93649,1.80741h-8.39151l-1.93649-1.80741v-3.3566h-9.81158"/>
</g>
</svg>
